<mxfile host="65bd71144e">
    <diagram id="gqCqxsdf7vo_ICaUPjvw" name="Page-1">
        <mxGraphModel dx="1118" dy="609" grid="1" gridSize="10" guides="1" tooltips="1" connect="1" arrows="1" fold="1" page="1" pageScale="1" pageWidth="850" pageHeight="1100" math="0" shadow="0">
            <root>
                <mxCell id="0"/>
                <mxCell id="1" parent="0"/>
                <mxCell id="2" value="" style="ellipse;whiteSpace=wrap;html=1;aspect=fixed;fillColor=none;" vertex="1" parent="1">
                    <mxGeometry x="60" y="70" width="130" height="130" as="geometry"/>
                </mxCell>
                <mxCell id="3" value="" style="ellipse;whiteSpace=wrap;html=1;aspect=fixed;fillColor=none;" vertex="1" parent="1">
                    <mxGeometry x="120" y="70" width="130" height="130" as="geometry"/>
                </mxCell>
                <mxCell id="4" value="" style="ellipse;whiteSpace=wrap;html=1;aspect=fixed;fillColor=none;" vertex="1" parent="1">
                    <mxGeometry x="550" y="70" width="130" height="130" as="geometry"/>
                </mxCell>
                <mxCell id="5" value="" style="ellipse;whiteSpace=wrap;html=1;aspect=fixed;fillColor=none;" vertex="1" parent="1">
                    <mxGeometry x="610" y="70" width="130" height="130" as="geometry"/>
                </mxCell>
                <mxCell id="6" value="" style="ellipse;whiteSpace=wrap;html=1;aspect=fixed;fillColor=none;" vertex="1" parent="1">
                    <mxGeometry x="60" y="360" width="130" height="130" as="geometry"/>
                </mxCell>
                <mxCell id="7" value="" style="ellipse;whiteSpace=wrap;html=1;aspect=fixed;fillColor=none;" vertex="1" parent="1">
                    <mxGeometry x="120" y="360" width="130" height="130" as="geometry"/>
                </mxCell>
                <mxCell id="8" value="" style="ellipse;whiteSpace=wrap;html=1;aspect=fixed;fillColor=none;" vertex="1" parent="1">
                    <mxGeometry x="575" y="370" width="130" height="130" as="geometry"/>
                </mxCell>
                <mxCell id="9" value="" style="ellipse;whiteSpace=wrap;html=1;aspect=fixed;fillColor=none;" vertex="1" parent="1">
                    <mxGeometry x="595" y="400" width="90" height="90" as="geometry"/>
                </mxCell>
                <mxCell id="10" value="union" style="text;html=1;align=center;verticalAlign=middle;resizable=0;points=[];autosize=1;strokeColor=none;fillColor=none;" vertex="1" parent="1">
                    <mxGeometry x="130" y="30" width="40" height="20" as="geometry"/>
                </mxCell>
                <mxCell id="11" value="intersection" style="text;html=1;align=center;verticalAlign=middle;resizable=0;points=[];autosize=1;strokeColor=none;fillColor=none;" vertex="1" parent="1">
                    <mxGeometry x="600" y="30" width="80" height="20" as="geometry"/>
                </mxCell>
                <mxCell id="12" value="difference" style="text;html=1;align=center;verticalAlign=middle;resizable=0;points=[];autosize=1;strokeColor=none;fillColor=none;" vertex="1" parent="1">
                    <mxGeometry x="115" y="320" width="70" height="20" as="geometry"/>
                </mxCell>
                <mxCell id="13" value="subset" style="text;html=1;align=center;verticalAlign=middle;resizable=0;points=[];autosize=1;strokeColor=none;fillColor=none;" vertex="1" parent="1">
                    <mxGeometry x="615" y="320" width="50" height="20" as="geometry"/>
                </mxCell>
                <mxCell id="14" value="A" style="text;html=1;align=center;verticalAlign=middle;resizable=0;points=[];autosize=1;strokeColor=none;fillColor=none;fontColor=#99CCFF;fontStyle=1;fontSize=16;" vertex="1" parent="1">
                    <mxGeometry x="515" y="120" width="30" height="20" as="geometry"/>
                </mxCell>
                <mxCell id="15" value="A" style="text;html=1;align=center;verticalAlign=middle;resizable=0;points=[];autosize=1;strokeColor=none;fillColor=none;fontColor=#99CCFF;fontStyle=1;fontSize=16;" vertex="1" parent="1">
                    <mxGeometry x="25" y="415" width="30" height="20" as="geometry"/>
                </mxCell>
                <mxCell id="16" value="A" style="text;html=1;align=center;verticalAlign=middle;resizable=0;points=[];autosize=1;strokeColor=none;fillColor=none;fontColor=#99CCFF;fontStyle=1;fontSize=16;" vertex="1" parent="1">
                    <mxGeometry x="25" y="120" width="30" height="20" as="geometry"/>
                </mxCell>
                <mxCell id="17" value="A" style="text;html=1;align=center;verticalAlign=middle;resizable=0;points=[];autosize=1;strokeColor=none;fillColor=none;fontColor=#99CCFF;fontStyle=1;fontSize=16;" vertex="1" parent="1">
                    <mxGeometry x="605" y="460" width="30" height="20" as="geometry"/>
                </mxCell>
                <mxCell id="18" value="B" style="text;html=1;align=center;verticalAlign=middle;resizable=0;points=[];autosize=1;strokeColor=none;fillColor=none;fontColor=#99CCFF;fontStyle=1;fontSize=16;" vertex="1" parent="1">
                    <mxGeometry x="595" y="380" width="30" height="20" as="geometry"/>
                </mxCell>
                <mxCell id="19" value="B" style="text;html=1;align=center;verticalAlign=middle;resizable=0;points=[];autosize=1;strokeColor=none;fillColor=none;fontColor=#99CCFF;fontStyle=1;fontSize=16;" vertex="1" parent="1">
                    <mxGeometry x="255" y="415" width="30" height="20" as="geometry"/>
                </mxCell>
                <mxCell id="20" value="B" style="text;html=1;align=center;verticalAlign=middle;resizable=0;points=[];autosize=1;strokeColor=none;fillColor=none;fontColor=#99CCFF;fontStyle=1;fontSize=16;" vertex="1" parent="1">
                    <mxGeometry x="745" y="120" width="30" height="20" as="geometry"/>
                </mxCell>
                <mxCell id="21" value="B" style="text;html=1;align=center;verticalAlign=middle;resizable=0;points=[];autosize=1;strokeColor=none;fillColor=none;fontColor=#99CCFF;fontStyle=1;fontSize=16;" vertex="1" parent="1">
                    <mxGeometry x="255" y="120" width="30" height="20" as="geometry"/>
                </mxCell>
                <mxCell id="23" value="1" style="text;html=1;align=center;verticalAlign=middle;resizable=0;points=[];autosize=1;strokeColor=none;fillColor=none;fontColor=#CCFF99;fontStyle=1;fontSize=14;" vertex="1" parent="1">
                    <mxGeometry x="90" y="100" width="20" height="20" as="geometry"/>
                </mxCell>
                <mxCell id="24" value="2" style="text;html=1;align=center;verticalAlign=middle;resizable=0;points=[];autosize=1;strokeColor=none;fillColor=none;fontColor=#CCFF99;fontStyle=1;fontSize=14;" vertex="1" parent="1">
                    <mxGeometry x="90" y="140" width="20" height="20" as="geometry"/>
                </mxCell>
                <mxCell id="25" value="4" style="text;html=1;align=center;verticalAlign=middle;resizable=0;points=[];autosize=1;strokeColor=none;fillColor=none;fontColor=#CCFF99;fontStyle=1;fontSize=14;" vertex="1" parent="1">
                    <mxGeometry x="200" y="90" width="20" height="20" as="geometry"/>
                </mxCell>
                <mxCell id="26" value="5" style="text;html=1;align=center;verticalAlign=middle;resizable=0;points=[];autosize=1;strokeColor=none;fillColor=none;fontColor=#CCFF99;fontStyle=1;fontSize=14;" vertex="1" parent="1">
                    <mxGeometry x="210" y="125" width="20" height="20" as="geometry"/>
                </mxCell>
                <mxCell id="27" value="6" style="text;html=1;align=center;verticalAlign=middle;resizable=0;points=[];autosize=1;strokeColor=none;fillColor=none;fontColor=#CCFF99;fontStyle=1;fontSize=14;" vertex="1" parent="1">
                    <mxGeometry x="200" y="160" width="20" height="20" as="geometry"/>
                </mxCell>
                <mxCell id="28" value="3" style="text;html=1;align=center;verticalAlign=middle;resizable=0;points=[];autosize=1;strokeColor=none;fillColor=none;fontColor=#CCFF99;fontStyle=1;fontSize=14;" vertex="1" parent="1">
                    <mxGeometry x="140" y="125" width="20" height="20" as="geometry"/>
                </mxCell>
                <mxCell id="29" value="1" style="text;html=1;align=center;verticalAlign=middle;resizable=0;points=[];autosize=1;strokeColor=none;fillColor=none;" vertex="1" parent="1">
                    <mxGeometry x="570" y="110" width="20" height="20" as="geometry"/>
                </mxCell>
                <mxCell id="30" value="4" style="text;html=1;align=center;verticalAlign=middle;resizable=0;points=[];autosize=1;strokeColor=none;fillColor=none;" vertex="1" parent="1">
                    <mxGeometry x="700" y="110" width="20" height="20" as="geometry"/>
                </mxCell>
                <mxCell id="31" value="2" style="text;html=1;align=center;verticalAlign=middle;resizable=0;points=[];autosize=1;strokeColor=none;fillColor=none;fontColor=#CCFF99;fontStyle=1;fontSize=14;" vertex="1" parent="1">
                    <mxGeometry x="640" y="110" width="20" height="20" as="geometry"/>
                </mxCell>
                <mxCell id="32" value="3" style="text;html=1;align=center;verticalAlign=middle;resizable=0;points=[];autosize=1;strokeColor=none;fillColor=none;fontColor=#CCFF99;fontStyle=1;fontSize=14;" vertex="1" parent="1">
                    <mxGeometry x="630" y="145" width="20" height="20" as="geometry"/>
                </mxCell>
                <mxCell id="33" value="1" style="text;html=1;align=center;verticalAlign=middle;resizable=0;points=[];autosize=1;strokeColor=none;fillColor=none;fontColor=#CCFF99;fontStyle=1;fontSize=14;" vertex="1" parent="1">
                    <mxGeometry x="80" y="400" width="20" height="20" as="geometry"/>
                </mxCell>
                <mxCell id="34" value="2" style="text;html=1;align=center;verticalAlign=middle;resizable=0;points=[];autosize=1;strokeColor=none;fillColor=none;" vertex="1" parent="1">
                    <mxGeometry x="140" y="400" width="20" height="20" as="geometry"/>
                </mxCell>
                <mxCell id="35" value="3" style="text;html=1;align=center;verticalAlign=middle;resizable=0;points=[];autosize=1;strokeColor=none;fillColor=none;" vertex="1" parent="1">
                    <mxGeometry x="140" y="435" width="20" height="20" as="geometry"/>
                </mxCell>
                <mxCell id="36" value="4" style="text;html=1;align=center;verticalAlign=middle;resizable=0;points=[];autosize=1;strokeColor=none;fillColor=none;" vertex="1" parent="1">
                    <mxGeometry x="210" y="410" width="20" height="20" as="geometry"/>
                </mxCell>
                <mxCell id="37" value="3" style="text;html=1;align=center;verticalAlign=middle;resizable=0;points=[];autosize=1;strokeColor=none;fillColor=none;" vertex="1" parent="1">
                    <mxGeometry x="640" y="380" width="20" height="20" as="geometry"/>
                </mxCell>
                <mxCell id="38" value="1" style="text;html=1;align=center;verticalAlign=middle;resizable=0;points=[];autosize=1;strokeColor=none;fillColor=none;fontStyle=1;fontColor=#CCFF99;fontSize=14;" vertex="1" parent="1">
                    <mxGeometry x="615" y="415" width="20" height="20" as="geometry"/>
                </mxCell>
                <mxCell id="39" value="2" style="text;html=1;align=center;verticalAlign=middle;resizable=0;points=[];autosize=1;strokeColor=none;fillColor=none;fontStyle=1;fontColor=#CCFF99;fontSize=14;" vertex="1" parent="1">
                    <mxGeometry x="645" y="440" width="20" height="20" as="geometry"/>
                </mxCell>
            </root>
        </mxGraphModel>
    </diagram>
</mxfile>